<svg width="206" height="215" viewBox="0 0 206 215" fill="none" xmlns="http://www.w3.org/2000/svg">
<path d="M39.3377 141.746L39.3524 141.717L39.3659 141.688L101.5 6.83979V162.474L3.43273 211.603L39.3377 141.746ZM2.06453 212.288C2.06482 212.288 2.06511 212.288 2.0654 212.288L2.06453 212.288Z" stroke="white" stroke-width="3"/>
<path d="M166.634 141.688L166.648 141.717L166.662 141.746L202.567 211.603L104.5 162.474V6.83978L166.634 141.688Z" fill="#2E54B5" stroke="white" stroke-width="3"/>
<path d="M39.3377 141.746L39.3524 141.717L39.3659 141.688L101.5 6.83979V162.474L3.43273 211.603L39.3377 141.746ZM2.06453 212.288C2.06482 212.288 2.06511 212.288 2.0654 212.288L2.06453 212.288Z" stroke="white" stroke-width="3"/>
<path d="M166.634 141.688L166.648 141.717L166.662 141.746L202.567 211.603L104.5 162.474V6.83978L166.634 141.688Z" fill="#2E54B5" stroke="white" stroke-width="3"/>
</svg>
