<svg width="24" height="24" viewBox="0 0 24 24" fill="none" xmlns="http://www.w3.org/2000/svg">
<path d="M5 14.0263C3.51 15.5123 4.84 17.6621 2 20.5152C3.32138 21.001 4.74067 21.1674 6.14 21.0007C7.70199 20.9208 9.20066 20.3636 10.43 19.4057C10.9061 18.935 11.2491 18.3486 11.4246 17.7054C11.6001 17.0621 11.602 16.3844 11.43 15.7402C11.2616 15.0888 10.9157 14.4959 10.43 14.0263C9.95317 13.5487 9.35574 13.2066 8.7 13.0356C8.04971 12.8652 7.36566 12.8671 6.71632 13.0409C6.06697 13.2148 5.47512 13.5546 5 14.0263Z" stroke="#1E42A0" stroke-width="2" stroke-miterlimit="10"/>
<path d="M8.97998 13.1445L19.23 3L21.62 5.37763L11.35 15.5519" stroke="#1E42A0" stroke-width="2" stroke-miterlimit="10"/>
</svg>
